<svg width="32" height="32" viewBox="0 0 32 32" fill="none" xmlns="http://www.w3.org/2000/svg">
<path d="M16.0002 30.9847C23.9199 30.9847 30.3402 24.5645 30.3402 16.6447C30.3402 8.72492 23.9199 2.30469 16.0002 2.30469C8.08039 2.30469 1.66016 8.72492 1.66016 16.6447C1.66016 24.5645 8.08039 30.9847 16.0002 30.9847Z" fill="#D68F30"/>
<path d="M2.63477 20.3697V21.8347C2.78477 22.2222 2.95227 22.6047 3.13477 22.9747V20.3697H2.63477ZM4.26977 23.1272V24.8872C4.46977 25.1697 4.67727 25.4472 4.89477 25.7147V23.1272H4.26977ZM6.43477 25.4272V27.3247C6.67727 27.5422 6.92727 27.7497 7.18477 27.9497V25.4272H6.43477ZM9.09977 27.1747V29.2147C9.34477 29.3497 9.59477 29.4772 9.84977 29.5997V27.1747H9.09977ZM12.1223 28.2872V30.4472C12.3698 30.5172 12.6198 30.5797 12.8723 30.6372V28.2872H12.1223ZM15.6598 28.6722V30.9747C15.7723 30.9772 15.8848 30.9822 15.9998 30.9822C16.1373 30.9822 16.2748 30.9747 16.4098 30.9722V28.6722H15.6598ZM19.1973 28.2697V30.6197C19.4498 30.5622 19.6998 30.4972 19.9473 30.4272V28.2697H19.1973ZM22.2123 27.1422V29.5697C22.4673 29.4472 22.7173 29.3147 22.9623 29.1772V27.1422H22.2123ZM24.8698 25.3797V27.9047C25.127 27.7035 25.3772 27.4934 25.6198 27.2747V25.3797H24.8698ZM27.7723 23.0722H27.1473V25.6597C27.3648 25.3897 27.5748 25.1122 27.7723 24.8272V23.0722ZM29.3973 20.3047H28.8973V22.9147C29.0798 22.5372 29.2473 22.1497 29.3973 21.7572V20.3047Z" fill="#BC6F00"/>
<path d="M16.0002 29.6946C23.9199 29.6946 30.3402 23.2744 30.3402 15.3546C30.3402 7.43488 23.9199 1.01465 16.0002 1.01465C8.08039 1.01465 1.66016 7.43488 1.66016 15.3546C1.66016 23.2744 8.08039 29.6946 16.0002 29.6946Z" fill="#FFF176"/>
<path d="M16 28.418C23.2142 28.418 29.0625 22.5697 29.0625 15.3555C29.0625 8.14125 23.2142 2.29297 16 2.29297C8.78578 2.29297 2.9375 8.14125 2.9375 15.3555C2.9375 22.5697 8.78578 28.418 16 28.418Z" fill="#F2BC1A"/>
<path d="M2.9126 15.855C2.8201 14.135 3.1176 12.39 3.7176 10.755C4.3426 9.12499 5.3001 7.61749 6.5076 6.33749C8.9326 3.77249 12.4526 2.28499 16.0001 2.26749C19.5476 2.28749 23.0701 3.77249 25.4901 6.33999C26.7001 7.61749 27.6551 9.12749 28.2801 10.755C28.8826 12.3925 29.1801 14.135 29.0851 15.855H29.0351C29.0299 14.1392 28.6902 12.4408 28.0351 10.855C27.3787 9.27092 26.42 7.82991 25.2126 6.61249C24.0044 5.39635 22.5688 4.42968 20.9876 3.76749C19.4068 3.10738 17.7107 2.76748 15.9976 2.76748C14.2845 2.76748 12.5884 3.10738 11.0076 3.76749C9.42638 4.42968 7.99081 5.39635 6.7826 6.61249C5.57465 7.8295 4.61589 9.27062 3.9601 10.855C3.30497 12.4408 2.9653 14.1392 2.9601 15.855H2.9126Z" fill="#E08F00"/>
<path d="M16.0002 1.01749C8.08016 1.01749 1.66016 7.43749 1.66016 15.3575C1.66016 23.2775 8.08016 29.6975 16.0002 29.6975C23.9202 29.6975 30.3402 23.2775 30.3402 15.3575C30.3402 7.43749 23.9202 1.01749 16.0002 1.01749ZM16.0002 28.42C8.78516 28.42 2.93766 22.5725 2.93766 15.3575C2.93766 8.13999 8.78516 2.29249 16.0002 2.29249C23.2152 2.29249 29.0627 8.13999 29.0627 15.355C29.0627 22.57 23.2152 28.42 16.0002 28.42Z" fill="#FFF176"/>
<path d="M9.49772 5.33789L9.81521 6.32039L10.8502 5.92539V6.32039L10.0127 6.92789L10.3327 7.51289V7.91039L9.49772 7.30289L8.66021 7.91039V7.51289L8.98021 6.92789L8.14522 6.32039V5.92539L9.17771 6.32039L9.49772 5.33789ZM5.50272 10.9779L5.82272 11.9604L6.85522 11.5654V11.9604L6.02022 12.5679L6.34022 13.1554V13.5504L5.50272 12.9429L4.66772 13.5504V13.1554L4.98772 12.5679L4.15022 11.9604V11.5654L5.18521 11.9604L5.50272 10.9779ZM5.38522 17.9304L5.70521 18.9129L6.73772 18.5179V18.9129L5.90272 19.5204L6.22271 20.1079V20.5029L5.38522 19.8954L4.55022 20.5029V20.1079L4.87021 19.5204L4.03271 18.9129V18.5179L5.06772 18.9129L5.38522 17.9304ZM9.65021 23.4504L9.97022 24.4329L11.0027 24.0379V24.4329L10.1677 25.0404L10.4877 25.6254V26.0229L9.65021 25.4154L8.81521 26.0229V25.6254L9.13522 25.0404L8.29771 24.4329V24.0379L9.33272 24.4329L9.65021 23.4504ZM22.5027 5.33789L22.1852 6.32039L21.1502 5.92539V6.32039L21.9877 6.92789L21.6677 7.51289V7.91039L22.5027 7.30289L23.3402 7.91039V7.51289L23.0202 6.92789L23.8552 6.32039V5.92539L22.8227 6.32039L22.5027 5.33789ZM26.4977 10.9779L26.1777 11.9604L25.1452 11.5654V11.9604L25.9802 12.5679L25.6602 13.1554V13.5504L26.4977 12.9429L27.3327 13.5504V13.1554L27.0127 12.5679L27.8502 11.9604V11.5654L26.8152 11.9604L26.4977 10.9779ZM26.6152 17.9304L26.2952 18.9129L25.2627 18.5179V18.9129L26.0977 19.5204L25.7777 20.1079V20.5029L26.6152 19.8954L27.4502 20.5029V20.1079L27.1302 19.5204L27.9677 18.9129V18.5179L26.9327 18.9129L26.6152 17.9304ZM22.3502 23.4504L22.0302 24.4329L20.9977 24.0379V24.4329L21.8327 25.0404L21.5127 25.6254V26.0229L22.3502 25.4154L23.1852 26.0229V25.6254L22.8652 25.0404L23.7027 24.4329V24.0379L22.6677 24.4329L22.3502 23.4504Z" fill="#D38200"/>
<path d="M22.3501 23.0529L22.6676 24.0354H23.7026L22.8651 24.6429L23.1851 25.6254L22.3501 25.0179L21.5126 25.6254L21.8326 24.6429L20.9976 24.0354H22.0301L22.3501 23.0529ZM26.6151 17.5354L26.9326 18.5179H27.9676L27.1301 19.1254L27.4501 20.1079L26.6151 19.5004L25.7776 20.1079L26.0976 19.1254L25.2626 18.5179H26.2951L26.6151 17.5354ZM26.4976 10.5829L26.8151 11.5654H27.8501L27.0126 12.1729L27.3326 13.1554L26.4976 12.5479L25.6601 13.1554L25.9801 12.1729L25.1451 11.5654H26.1776L26.4976 10.5829ZM22.5026 4.94043L22.8226 5.92293H23.8551L23.0201 6.53043L23.3401 7.51293L22.5026 6.90543L21.6676 7.51293L21.9876 6.53043L21.1501 5.92293H22.1851L22.5026 4.94043Z" fill="#FFF176"/>
<path d="M16.0127 25.625L16.3327 26.6075L17.3652 26.2125V26.6075L16.5302 27.215L16.8502 27.8025V28.1975L16.0127 27.59L15.1777 28.1975V27.8025L15.4977 27.215L14.6602 26.6075V26.2125L15.6952 26.6075L16.0127 25.625Z" fill="#D38200"/>
<path d="M16.0127 25.0996L16.3327 26.0821H17.3652L16.5302 26.6896L16.8502 27.6721L16.0127 27.0646L15.1777 27.6721L15.4977 26.6896L14.6602 26.0821H15.6952L16.0127 25.0996Z" fill="#FFF176"/>
<path d="M16.0127 3.2225L16.3327 4.205L17.3652 3.81V4.205L16.5302 4.8125L16.8502 5.4V5.795L16.0127 5.1875L15.1777 5.795V5.4L15.4977 4.8125L14.6602 4.205V3.81L15.6952 4.205L16.0127 3.2225Z" fill="#D38200"/>
<path d="M16.0127 2.82715L16.3327 3.80965H17.3652L16.5302 4.41715L16.8502 5.39965L16.0127 4.79215L15.1777 5.39965L15.4977 4.41715L14.6602 3.80965H15.6952L16.0127 2.82715ZM9.65021 23.0521L9.33272 24.0346H8.29771L9.13522 24.6421L8.81521 25.6246L9.65021 25.0171L10.4877 25.6246L10.1677 24.6421L11.0027 24.0346H9.97022L9.65021 23.0521ZM5.38522 17.5346L5.06772 18.5171H4.03271L4.87021 19.1246L4.55022 20.1071L5.38522 19.4996L6.22271 20.1071L5.90272 19.1246L6.73772 18.5171H5.70521L5.38522 17.5346ZM5.50272 10.5821L5.18521 11.5646H4.15022L4.98772 12.1721L4.66772 13.1546L5.50272 12.5471L6.34022 13.1546L6.02022 12.1721L6.85522 11.5646H5.82272L5.50272 10.5821ZM9.49772 4.93965L9.17771 5.92215H8.14522L8.98021 6.52965L8.66021 7.51215L9.49772 6.90465L10.3327 7.51215L10.0127 6.52965L10.8502 5.92215H9.81521L9.49772 4.93965Z" fill="#FFF176"/>
<path d="M23.8049 12.0496C23.8049 11.9621 8.20986 12.0496 8.20986 12.0496L8.06986 12.4696V13.1871C8.06986 13.3171 8.17486 13.4221 8.30486 13.4221H23.6949C23.8249 13.4221 23.9299 13.3171 23.9299 13.1871V12.4896L23.8049 12.0496ZM23.8274 21.3746H8.27486L7.23486 21.8971L7.24736 22.5696C7.24986 22.6421 7.30986 22.7021 7.38486 22.7021H24.6174C24.6899 22.7021 24.7524 22.6446 24.7549 22.5696L24.7674 21.9096L23.8274 21.3746Z" fill="#D38200"/>
<path d="M10.7823 19.3304H9.88734C9.73984 19.3304 9.61984 18.8654 9.61984 18.7179L11.0473 18.6729C11.0473 18.8204 10.9273 19.3304 10.7823 19.3304ZM11.0873 14.5029H9.57984C9.46734 14.5029 9.36984 14.4279 9.33734 14.3204L9.21984 13.3379H11.4273L11.3273 14.3204C11.2973 14.4279 11.1998 14.5029 11.0873 14.5029ZM9.57984 19.6279H11.0873C11.1998 19.6279 11.4223 19.6979 11.4523 19.8054C11.4523 19.8054 11.4448 20.2729 11.4448 20.4579C11.4448 20.6429 11.3698 20.7779 11.2023 20.7779H9.46484C9.29734 20.7779 9.22234 20.6279 9.22234 20.4579C9.22234 20.2879 9.21484 19.8104 9.21484 19.8104C9.24734 19.7029 9.46734 19.6279 9.57984 19.6279ZM22.4073 19.3304H21.5123C21.3648 19.3304 21.2448 18.8654 21.2448 18.7179L22.6723 18.6729C22.6723 18.8204 22.5548 19.3304 22.4073 19.3304ZM22.7123 14.5029H21.2048C21.0923 14.5029 20.9948 14.4279 20.9623 14.3204L20.8448 13.3379H23.0523L22.9523 14.3204C22.9223 14.4279 22.8248 14.5029 22.7123 14.5029ZM21.2048 19.6279H22.7123C22.8248 19.6279 23.0473 19.6979 23.0773 19.8054C23.0773 19.8054 23.0698 20.2729 23.0698 20.4579C23.0698 20.6429 22.9948 20.7779 22.8273 20.7779H21.0898C20.9223 20.7779 20.8473 20.6279 20.8473 20.4579C20.8473 20.2879 20.8398 19.8104 20.8398 19.8104C20.8723 19.7029 21.0923 19.6279 21.2048 19.6279ZM18.5323 19.3304H17.6373C17.4898 19.3304 17.3698 18.8654 17.3698 18.7179L18.7973 18.6729C18.7973 18.8204 18.6798 19.3304 18.5323 19.3304ZM18.8373 14.5029H17.3298C17.2173 14.5029 17.1198 14.4279 17.0873 14.3204L16.9698 13.3379H19.1773L19.0773 14.3204C19.0473 14.4279 18.9498 14.5029 18.8373 14.5029ZM17.3298 19.6279H18.8373C18.9498 19.6279 19.1723 19.6979 19.2023 19.8054C19.2023 19.8054 19.1948 20.2729 19.1948 20.4579C19.1948 20.6429 19.1198 20.7779 18.9523 20.7779H17.2148C17.0473 20.7779 16.9723 20.6279 16.9723 20.4579C16.9723 20.2879 16.9648 19.8104 16.9648 19.8104C16.9973 19.7029 17.2173 19.6279 17.3298 19.6279ZM14.6573 19.3304H13.7623C13.6148 19.3304 13.4948 18.8654 13.4948 18.7179L14.9223 18.6729C14.9223 18.8204 14.8048 19.3304 14.6573 19.3304ZM14.9623 14.5029H13.4548C13.3423 14.5029 13.2448 14.4279 13.2123 14.3204L13.0948 13.3379H15.3023L15.2023 14.3204C15.1723 14.4279 15.0748 14.5029 14.9623 14.5029ZM13.4548 19.6279H14.9623C15.0748 19.6279 15.2973 19.6979 15.3273 19.8054C15.3273 19.8054 15.3198 20.2729 15.3198 20.4579C15.3198 20.6429 15.2448 20.7779 15.0773 20.7779H13.3398C13.1723 20.7779 13.0973 20.6279 13.0973 20.4579C13.0973 20.2879 13.0898 19.8104 13.0898 19.8104C13.1223 19.7029 13.3423 19.6279 13.4548 19.6279Z" fill="#D38200"/>
<path d="M23.9173 11.38C23.9173 11.2925 23.8723 11.21 23.8048 11.17L16.0098 6.745L8.20482 11.165C8.12982 11.21 8.08232 11.2925 8.08232 11.38L8.06982 12.4725C8.06982 12.61 8.18232 12.7225 8.31982 12.7225H23.6773C23.8148 12.7225 23.9273 12.61 23.9273 12.4725L23.9173 11.38Z" fill="#FFF176"/>
<path d="M21.96 11.0825L16 7.70001L10.04 11.0825H21.96Z" fill="#F2BC1A"/>
<path d="M19.7677 10.6703L16.0002 8.53027L12.2327 10.6703H19.7677ZM23.3477 20.5053H8.65274C8.50774 20.5053 8.37024 20.5678 8.27274 20.6753L7.26274 21.8028C7.19274 21.8803 7.24774 22.0028 7.35274 22.0028H24.6477C24.7502 22.0028 24.8052 21.8803 24.7377 21.8028L23.7252 20.6753C23.6302 20.5678 23.4902 20.5053 23.3477 20.5053ZM22.4077 18.8778H21.5127C21.3652 18.8778 21.2452 18.7578 21.2452 18.6103V14.6153C21.2452 14.4678 21.3652 14.3478 21.5127 14.3478H22.4077C22.5552 14.3478 22.6752 14.4678 22.6752 14.6153V18.6128C22.6752 18.7603 22.5552 18.8778 22.4077 18.8778ZM22.7152 14.0503H21.2077C21.0952 14.0503 20.9977 13.9753 20.9652 13.8678L20.8502 13.4703C20.8027 13.3103 20.9252 13.1503 21.0927 13.1503H22.8302C22.9977 13.1503 23.1177 13.3103 23.0727 13.4703L22.9577 13.8678C22.9252 13.9753 22.8252 14.0503 22.7152 14.0503ZM21.2052 19.1778H22.7127C22.8252 19.1778 22.9227 19.2528 22.9552 19.3603L23.0702 19.7578C23.1177 19.9178 22.9952 20.0778 22.8277 20.0778H21.0902C20.9227 20.0778 20.8027 19.9178 20.8477 19.7578L20.9627 19.3603C20.9952 19.2503 21.0952 19.1778 21.2052 19.1778ZM10.7827 18.8778H9.88774C9.74024 18.8778 9.62024 18.7578 9.62024 18.6103V14.6153C9.62024 14.4678 9.74024 14.3478 9.88774 14.3478H10.7827C10.9302 14.3478 11.0502 14.4678 11.0502 14.6153V18.6128C11.0477 18.7603 10.9277 18.8778 10.7827 18.8778ZM11.0877 14.0503H9.58024C9.46774 14.0503 9.37024 13.9753 9.33774 13.8678L9.22274 13.4703C9.17524 13.3103 9.29774 13.1503 9.46524 13.1503H11.2027C11.3702 13.1503 11.4902 13.3103 11.4452 13.4703L11.3302 13.8678C11.2977 13.9753 11.2002 14.0503 11.0877 14.0503ZM9.58024 19.1778H11.0877C11.2002 19.1778 11.2977 19.2528 11.3302 19.3603L11.4452 19.7578C11.4927 19.9178 11.3702 20.0778 11.2027 20.0778H9.46524C9.29774 20.0778 9.17774 19.9178 9.22274 19.7578L9.33774 19.3603C9.37024 19.2503 9.46774 19.1778 9.58024 19.1778ZM14.6577 18.8778H13.7627C13.6152 18.8778 13.4952 18.7578 13.4952 18.6103V14.6153C13.4952 14.4678 13.6152 14.3478 13.7627 14.3478H14.6577C14.8052 14.3478 14.9252 14.4678 14.9252 14.6153V18.6128C14.9246 18.6833 14.8961 18.7507 14.846 18.8003C14.7959 18.8499 14.7283 18.8778 14.6577 18.8778ZM14.9627 14.0503H13.4552C13.3427 14.0503 13.2452 13.9753 13.2127 13.8678L13.0977 13.4703C13.0502 13.3103 13.1727 13.1503 13.3402 13.1503H15.0777C15.2452 13.1503 15.3652 13.3103 15.3202 13.4703L15.2052 13.8678C15.1727 13.9753 15.0752 14.0503 14.9627 14.0503ZM13.4552 19.1778H14.9627C15.0752 19.1778 15.1727 19.2528 15.2052 19.3603L15.3202 19.7578C15.3677 19.9178 15.2452 20.0778 15.0777 20.0778H13.3402C13.1727 20.0778 13.0527 19.9178 13.0977 19.7578L13.2127 19.3603C13.2452 19.2503 13.3427 19.1778 13.4552 19.1778ZM18.5327 18.8778H17.6377C17.4902 18.8778 17.3702 18.7578 17.3702 18.6103V14.6153C17.3702 14.4678 17.4902 14.3478 17.6377 14.3478H18.5327C18.6802 14.3478 18.8002 14.4678 18.8002 14.6153V18.6128C18.7996 18.6833 18.7711 18.7507 18.721 18.8003C18.6709 18.8499 18.6033 18.8778 18.5327 18.8778ZM18.8377 14.0503H17.3302C17.2177 14.0503 17.1202 13.9753 17.0877 13.8678L16.9727 13.4703C16.9252 13.3103 17.0477 13.1503 17.2152 13.1503H18.9527C19.1202 13.1503 19.2402 13.3103 19.1952 13.4703L19.0802 13.8678C19.0477 13.9753 18.9502 14.0503 18.8377 14.0503ZM17.3302 19.1778H18.8377C18.9502 19.1778 19.0477 19.2528 19.0802 19.3603L19.1952 19.7578C19.2427 19.9178 19.1202 20.0778 18.9527 20.0778H17.2152C17.0477 20.0778 16.9277 19.9178 16.9727 19.7578L17.0877 19.3603C17.1202 19.2503 17.2202 19.1778 17.3302 19.1778Z" fill="#FFF176"/>
</svg>
