<svg width="32" height="32" viewBox="0 0 32 32" fill="none" xmlns="http://www.w3.org/2000/svg">
<g clip-path="url(#clip0_719_11641)">
<path d="M23.9365 0H8.06197C7.38841 -1.30503e-08 6.74243 0.267538 6.2661 0.743772C5.78977 1.22001 5.52211 1.86594 5.52197 2.5395V29.462C5.52263 30.1354 5.79047 30.781 6.26668 31.2571C6.7429 31.7333 7.38857 32.001 8.06197 32.0015H23.9365C24.6099 32.0006 25.2555 31.7328 25.7319 31.2568C26.2082 30.7808 26.4765 30.1354 26.478 29.462V2.5435C26.4772 1.86988 26.2091 1.22411 25.7326 0.747973C25.2561 0.271839 24.6101 0.00426448 23.9365 0.004" fill="#405866"/>
<path d="M22.2893 1.93755H9.70934C9.17579 1.93755 8.66402 2.14915 8.28628 2.52596C7.90854 2.90276 7.69566 3.414 7.69434 3.94755V25.281C7.69566 25.8146 7.90854 26.3258 8.28628 26.7026C8.66402 27.0794 9.17579 27.291 9.70934 27.291H22.2893C23.3993 27.291 24.2993 26.386 24.2993 25.281V3.94555C24.2993 2.83555 23.3968 1.93555 22.2893 1.93555" fill="#85CFEA"/>
<path d="M15.6498 1.93752H9.71227C9.17872 1.93752 8.66695 2.14913 8.28921 2.52593C7.91147 2.90274 7.69859 3.41398 7.69727 3.94752V25.281C7.69859 25.8146 7.91147 26.3258 8.28921 26.7026C8.66695 27.0794 9.17872 27.291 9.71227 27.291H22.2923C22.6988 27.291 23.0743 27.1665 23.3903 26.9615C18.0418 19.9945 15.1788 10.629 15.6513 1.93652" fill="#28A6DE"/>
<path d="M17.65 29.695C17.65 30.6035 16.912 31.344 16.0015 31.344C15.091 31.344 14.353 30.604 14.353 29.695C14.353 28.786 15.091 28.046 16.0015 28.046C16.912 28.046 17.65 28.786 17.65 29.695ZM11.2975 29.695C11.3008 29.8554 11.2722 30.0149 11.2131 30.164C11.1541 30.3132 11.0659 30.4491 10.9537 30.5638C10.8415 30.6785 10.7075 30.7696 10.5596 30.8318C10.4117 30.8941 10.2529 30.9262 10.0925 30.9263C9.93205 30.9264 9.77321 30.8945 9.62525 30.8324C9.4773 30.7704 9.34322 30.6794 9.23086 30.5649C9.1185 30.4503 9.03013 30.3145 8.97091 30.1654C8.91168 30.0163 8.88281 29.8569 8.88598 29.6965C8.8922 29.381 9.02187 29.0804 9.24716 28.8594C9.47244 28.6384 9.77539 28.5145 10.091 28.5143C10.4066 28.5141 10.7097 28.6376 10.9353 28.8584C11.1608 29.0791 11.2909 29.3795 11.2975 29.695ZM20.705 29.695C20.7003 29.8562 20.7281 30.0167 20.7866 30.1671C20.8451 30.3174 20.9331 30.4544 21.0455 30.5701C21.1579 30.6858 21.2924 30.7778 21.441 30.8406C21.5895 30.9034 21.7492 30.9357 21.9105 30.9357C22.0718 30.9357 22.2314 30.9034 22.38 30.8406C22.5286 30.7778 22.663 30.6858 22.7754 30.5701C22.8878 30.4544 22.9759 30.3174 23.0344 30.1671C23.0929 30.0167 23.1206 29.8562 23.116 29.695C23.116 29.3753 22.989 29.0686 22.7629 28.8426C22.5368 28.6165 22.2302 28.4895 21.9105 28.4895C21.5908 28.4895 21.2841 28.6165 21.0581 28.8426C20.832 29.0686 20.705 29.3753 20.705 29.695Z" fill="#CBD5DC"/>
</g>
<defs>
<clipPath id="clip0_719_11641">
<rect width="32" height="32" fill="white"/>
</clipPath>
</defs>
</svg>
