<svg width="32" height="32" viewBox="0 0 32 32" fill="none" xmlns="http://www.w3.org/2000/svg">
<g clip-path="url(#clip0_719_11626)">
<path d="M27.5553 26.2222C27.5553 26.5758 27.4149 26.915 27.1648 27.165C26.9148 27.4151 26.5756 27.5555 26.222 27.5555C25.8684 27.5555 25.5292 27.4151 25.2792 27.165C25.0291 26.915 24.8887 26.5758 24.8887 26.2222V4.88888C24.8887 4.53525 25.0291 4.19611 25.2792 3.94607C25.5292 3.69602 25.8684 3.55554 26.222 3.55554C26.5756 3.55554 26.9148 3.69602 27.1648 3.94607C27.4149 4.19611 27.5553 4.53525 27.5553 4.88888V26.2222Z" fill="#CCD6DD"/>
<path d="M31.0064 28.4444C31.0392 28.2987 31.0615 28.1511 31.0615 28C31.0615 26.2818 28.8721 24.8889 26.1726 24.8889C23.473 24.8889 21.2837 26.2818 21.2837 28C21.2837 28.1511 21.3059 28.2987 21.3388 28.4444H31.0064Z" fill="#CCD6DD"/>
<path d="M31.9502 8C32.2471 9 31.1537 9.77778 30.1724 9.77778H22.1724C21.1911 9.77778 20.1359 8.88889 20.3946 8L22.1724 1.77778C22.3946 0.814222 22.9688 0 23.9502 0H28.3946C29.3768 0 29.9502 1 30.1724 1.77778L31.9502 8Z" fill="#FCAB40"/>
<path d="M25.783 25.8679C25.783 26.9479 24.879 27.8225 23.7643 27.8225H5.5963C4.48164 27.8225 3.57764 26.9479 3.57764 25.8679V17.0679C3.57764 15.9879 4.48164 15.1123 5.5963 15.1123H23.7643C24.879 15.1123 25.783 15.9879 25.783 17.0679V25.8679Z" fill="#5D9040"/>
<path d="M24.4445 27.8222C24.4445 28.3409 24.2384 28.8383 23.8717 29.205C23.505 29.5717 23.0076 29.7778 22.4889 29.7778H5.86669C5.34804 29.7778 4.85064 29.5717 4.4839 29.205C4.11716 28.8383 3.91113 28.3409 3.91113 27.8222V26.8444C3.91113 26.3258 4.11716 25.8284 4.4839 25.4617C4.85064 25.0949 5.34804 24.8889 5.86669 24.8889H22.4889C23.0076 24.8889 23.505 25.0949 23.8717 25.4617C24.2384 25.8284 24.4445 26.3258 24.4445 26.8444V27.8222Z" fill="#3F7123"/>
<path d="M14.6809 22.4444C20.8095 22.4444 25.7778 20.0069 25.7778 17C25.7778 13.9931 20.8095 11.5555 14.6809 11.5555C8.55223 11.5555 3.58398 13.9931 3.58398 17C3.58398 20.0069 8.55223 22.4444 14.6809 22.4444Z" fill="#5D9040"/>
<path d="M5.86658 20.9787C5.86652 21.3639 5.79058 21.7454 5.64309 22.1013C5.4956 22.4573 5.27945 22.7807 5.00698 23.053C4.73451 23.3254 4.41106 23.5415 4.0551 23.6889C3.69913 23.8362 3.31763 23.9121 2.93236 23.912C2.54709 23.9119 2.1656 23.836 1.80968 23.6885C1.45376 23.541 1.13038 23.3249 0.857993 23.0524C0.585608 22.7799 0.369556 22.4565 0.222174 22.1005C0.0747917 21.7446 -0.0010349 21.3631 -0.000976529 20.9778C-0.000976529 20.1997 0.308117 19.4535 0.858307 18.9033C1.4085 18.3531 2.15471 18.044 2.9328 18.044C3.71089 18.044 4.45711 18.3531 5.0073 18.9033C5.55749 19.4535 5.86658 20.2006 5.86658 20.9787Z" fill="#78B159"/>
<path d="M5.86668 29.7774C5.86668 30.296 5.66065 30.7934 5.29391 31.1602C4.92717 31.5269 4.42977 31.7329 3.91112 31.7329C3.39248 31.7329 2.89507 31.5269 2.52834 31.1602C2.1616 30.7934 1.95557 30.296 1.95557 29.7774V20.9783C1.95557 20.4596 2.1616 19.9622 2.52834 19.5955C2.89507 19.2287 3.39248 19.0227 3.91112 19.0227C4.42977 19.0227 4.92717 19.2287 5.29391 19.5955C5.66065 19.9622 5.86668 20.4596 5.86668 20.9783V29.7774ZM23.4667 20.9783C23.4667 21.7562 23.7757 22.5023 24.3258 23.0524C24.8759 23.6025 25.622 23.9116 26.4 23.9116C27.178 23.9116 27.9241 23.6025 28.4742 23.0524C29.0243 22.5023 29.3333 21.7562 29.3333 20.9783C29.3333 20.2003 29.0243 19.4542 28.4742 18.9041C27.9241 18.354 27.178 18.0449 26.4 18.0449C25.622 18.0449 24.8759 18.354 24.3258 18.9041C23.7757 19.4542 23.4667 20.2003 23.4667 20.9783Z" fill="#78B159"/>
<path d="M23.4667 29.7774C23.4611 30.0377 23.5076 30.2964 23.6034 30.5385C23.6991 30.7806 23.8423 31.0011 24.0244 31.1871C24.2065 31.3731 24.4239 31.5209 24.6638 31.6218C24.9038 31.7227 25.1615 31.7747 25.4218 31.7747C25.6821 31.7747 25.9398 31.7227 26.1798 31.6218C26.4198 31.5209 26.6372 31.3731 26.8193 31.1871C27.0014 31.0011 27.1445 30.7806 27.2402 30.5385C27.336 30.2964 27.3825 30.0377 27.3769 29.7774V20.9783C27.366 20.467 27.1552 19.9803 26.7898 19.6226C26.4243 19.2648 25.9332 19.0645 25.4218 19.0645C24.9104 19.0645 24.4193 19.2648 24.0538 19.6226C23.6884 19.9803 23.4776 20.467 23.4667 20.9783V29.7774ZM14.6667 24.8885C14.6667 25.4072 14.4607 25.9046 14.0939 26.2713C13.7272 26.6381 13.2298 26.8441 12.7111 26.8441H7.82226C7.30361 26.8441 6.80621 26.6381 6.43947 26.2713C6.07273 25.9046 5.8667 25.4072 5.8667 24.8885C5.8667 24.3699 6.07273 23.8725 6.43947 23.5058C6.80621 23.139 7.30361 22.933 7.82226 22.933H12.7111C13.2298 22.933 13.7272 23.139 14.0939 23.5058C14.4607 23.8725 14.6667 24.3699 14.6667 24.8885ZM23.4667 24.8885C23.4667 25.4072 23.2607 25.9046 22.8939 26.2713C22.5272 26.6381 22.0298 26.8441 21.5111 26.8441H16.6223C16.1036 26.8441 15.6062 26.6381 15.2395 26.2713C14.8727 25.9046 14.6667 25.4072 14.6667 24.8885C14.6667 24.3699 14.8727 23.8725 15.2395 23.5058C15.6062 23.139 16.1036 22.933 16.6223 22.933H21.5111C22.0298 22.933 22.5272 23.139 22.8939 23.5058C23.2607 23.8725 23.4667 24.3699 23.4667 24.8885Z" fill="#78B159"/>
<path d="M5.3335 24.8889H24.0002V27.5556H5.3335V24.8889Z" fill="#78B159"/>
</g>
<defs>
<clipPath id="clip0_719_11626">
<rect width="32" height="32" fill="white"/>
</clipPath>
</defs>
</svg>
