<svg width="32" height="32" viewBox="0 0 32 32" fill="none" xmlns="http://www.w3.org/2000/svg">
<path d="M26.6665 27.3333H5.33317C3.8665 27.3333 2.6665 26.1333 2.6665 24.6667V10.7333C2.6665 9.86667 3.0665 9.06667 3.79984 8.53333L15.9998 0L28.1998 8.53333C28.9332 9 29.3332 9.86667 29.3332 10.7333V24.6667C29.3332 26.1333 28.1332 27.3333 26.6665 27.3333Z" fill="#78909C"/>
<path d="M9.3335 0.666992H22.6668V21.3337H9.3335V0.666992Z" fill="#AED581"/>
<path d="M8.6665 0V22H23.3332V0H8.6665ZM21.9998 20.6667H9.99984V1.33333H21.9998V20.6667Z" fill="#558B2F"/>
<path d="M22.6663 2.00033C22.6663 3.13366 22.4663 4.00033 21.333 4.00033C20.1997 4.00033 19.333 3.13366 19.333 2.00033C19.333 0.866992 20.1997 0.666992 21.333 0.666992C22.4663 0.666992 22.6663 0.866992 22.6663 2.00033ZM10.6663 0.666992C11.7997 0.666992 12.6663 0.866992 12.6663 2.00033C12.6663 3.13366 11.7997 4.00033 10.6663 4.00033C9.53301 4.00033 9.33301 3.13366 9.33301 2.00033C9.33301 0.866992 9.53301 0.666992 10.6663 0.666992Z" fill="#558B2F"/>
<path d="M15.9998 6.66667C16.7362 6.66667 17.3332 6.06971 17.3332 5.33333C17.3332 4.59695 16.7362 4 15.9998 4C15.2635 4 14.6665 4.59695 14.6665 5.33333C14.6665 6.06971 15.2635 6.66667 15.9998 6.66667Z" fill="#558B2F"/>
<path d="M16 17.333C18.2091 17.333 20 15.5421 20 13.333C20 11.1239 18.2091 9.33301 16 9.33301C13.7909 9.33301 12 11.1239 12 13.333C12 15.5421 13.7909 17.333 16 17.333Z" fill="#558B2F"/>
<path d="M26.6665 27.333H5.33317C3.8665 27.333 2.6665 26.133 2.6665 24.6663V11.333L15.9998 19.9997L29.3332 11.333V24.6663C29.3332 26.133 28.1332 27.333 26.6665 27.333Z" fill="#CFD8DC"/>
</svg>
