<svg width="16" height="16" viewBox="0 0 16 16" fill="none" xmlns="http://www.w3.org/2000/svg">
<path d="M8 0C6.41775 0 4.87103 0.469192 3.55544 1.34824C2.23985 2.22729 1.21447 3.47672 0.608967 4.93853C0.00346614 6.40034 -0.15496 8.00887 0.153721 9.56072C0.462403 11.1126 1.22433 12.538 2.34315 13.6569C3.46197 14.7757 4.88743 15.5376 6.43928 15.8463C7.99113 16.155 9.59966 15.9965 11.0615 15.391C12.5233 14.7855 13.7727 13.7602 14.6518 12.4446C15.5308 11.129 16 9.58225 16 8C15.9975 5.87903 15.1539 3.84565 13.6541 2.3459C12.1544 0.846145 10.121 0.00249086 8 0ZM2.66667 3.37961C3.67617 4.53786 4.27645 5.99613 4.3749 7.52941H0.956866C1.05816 5.9965 1.6587 4.53895 2.66667 3.37961ZM0.956866 8.47059H4.3749C4.27645 10.0039 3.67617 11.4621 2.66667 12.6204C1.6587 11.461 1.05816 10.0035 0.956866 8.47059ZM7.52941 15.0431C5.97527 14.9399 4.49939 14.3236 3.33334 13.291C4.51927 11.9537 5.21901 10.2552 5.31922 8.47059H7.52941V15.0431ZM7.52941 7.52941H5.31922C5.21901 5.74482 4.51927 4.04632 3.33334 2.70902C4.49939 1.67639 5.97527 1.0601 7.52941 0.956863V7.52941ZM15.0431 7.52941H11.6251C11.7235 5.99613 12.3238 4.53786 13.3333 3.37961C14.3413 4.53895 14.9418 5.9965 15.0431 7.52941ZM8.47059 0.956863C10.0247 1.0601 11.5006 1.67639 12.6667 2.70902C11.4807 4.04632 10.781 5.74482 10.6808 7.52941H8.47059V0.956863ZM8.47059 15.0431V8.47059H10.6808C10.781 10.2552 11.4807 11.9537 12.6667 13.291C11.5006 14.3236 10.0247 14.9399 8.47059 15.0431ZM13.3333 12.6204C12.3238 11.4621 11.7235 10.0039 11.6251 8.47059H15.0431C14.9418 10.0035 14.3413 11.461 13.3333 12.6204Z" fill="#0D5057"/>
</svg>
