<svg width="19" height="15" viewBox="0 0 19 15" fill="none" xmlns="http://www.w3.org/2000/svg">
<path d="M17.7128 1.91489H15.6383V0.478723C15.6383 0.351758 15.5879 0.229993 15.4981 0.140215C15.4083 0.0504367 15.2865 0 15.1596 0H3.67021C3.54325 0 3.42148 0.0504367 3.3317 0.140215C3.24193 0.229993 3.19149 0.351758 3.19149 0.478723V1.91489H1.11702C0.820769 1.91489 0.53665 2.03258 0.327168 2.24206C0.117686 2.45154 0 2.73566 0 3.03191V4.30851C0 5.11262 0.319433 5.8838 0.888027 6.4524C1.45662 7.02099 2.2278 7.34043 3.03191 7.34043H3.44202C3.79848 8.55166 4.51493 9.62582 5.49623 10.4203C6.47753 11.2148 7.67727 11.692 8.93617 11.7886V14.0426H6.8617C6.73474 14.0426 6.61297 14.093 6.52319 14.1828C6.43342 14.2725 6.38298 14.3943 6.38298 14.5213C6.38298 14.6482 6.43342 14.77 6.52319 14.8598C6.61297 14.9496 6.73474 15 6.8617 15H11.9681C12.095 15 12.2168 14.9496 12.3066 14.8598C12.3964 14.77 12.4468 14.6482 12.4468 14.5213C12.4468 14.3943 12.3964 14.2725 12.3066 14.1828C12.2168 14.093 12.095 14.0426 11.9681 14.0426H9.89362V11.7886C12.4819 11.5875 14.6354 9.76995 15.3686 7.34043H15.7979C16.602 7.34043 17.3732 7.02099 17.9418 6.4524C18.5104 5.8838 18.8298 5.11262 18.8298 4.30851V3.03191C18.8298 2.73566 18.7121 2.45154 18.5026 2.24206C18.2931 2.03258 18.009 1.91489 17.7128 1.91489ZM3.03191 6.38298C2.48173 6.38298 1.95408 6.16442 1.56504 5.77538C1.17601 5.38634 0.957447 4.85869 0.957447 4.30851V3.03191C0.957447 2.98959 0.974259 2.949 1.00419 2.91908C1.03411 2.88915 1.0747 2.87234 1.11702 2.87234H3.19149V5.58511C3.19229 5.85188 3.20961 6.11835 3.24335 6.38298H3.03191ZM14.6809 5.5133C14.6809 8.43511 12.3367 10.8295 9.45479 10.8511C8.7599 10.8563 8.07085 10.724 7.42734 10.4617C6.78383 10.1994 6.1986 9.81239 5.70538 9.32288C5.21215 8.83336 4.8207 8.25107 4.55357 7.60956C4.28643 6.96805 4.14892 6.28001 4.14894 5.58511V0.957447H14.6809V5.5133ZM17.8723 4.30851C17.8723 4.85869 17.6538 5.38634 17.2647 5.77538C16.8757 6.16442 16.3481 6.38298 15.7979 6.38298H15.5769C15.6175 6.09486 15.638 5.80427 15.6383 5.5133V2.87234H17.7128C17.7551 2.87234 17.7957 2.88915 17.8256 2.91908C17.8555 2.949 17.8723 2.98959 17.8723 3.03191V4.30851Z" fill="white"/>
</svg>
