<svg width="16" height="16" viewBox="0 0 16 16" fill="none" xmlns="http://www.w3.org/2000/svg">
<path d="M8 0C6.41775 0 4.87103 0.469192 3.55544 1.34824C2.23985 2.22729 1.21447 3.47672 0.608967 4.93853C0.00346614 6.40034 -0.15496 8.00887 0.153721 9.56072C0.462403 11.1126 1.22433 12.538 2.34315 13.6569C3.46197 14.7757 4.88743 15.5376 6.43928 15.8463C7.99113 16.155 9.59966 15.9965 11.0615 15.391C12.5233 14.7855 13.7727 13.7602 14.6518 12.4446C15.5308 11.129 16 9.58225 16 8C15.9975 5.87903 15.1539 3.84565 13.6541 2.3459C12.1544 0.846145 10.121 0.00249086 8 0ZM14.0918 11.5624H11.2855L10.4635 10.4314L11.5059 7.39451L12.8392 6.96235L15.0306 8.64314C14.9369 9.67356 14.6163 10.6705 14.0918 11.5624ZM4.71451 11.5624H1.90824C1.3843 10.6703 1.06423 9.67343 0.970984 8.64314L3.16236 6.96235L4.49569 7.39451L5.53647 10.4314L4.71451 11.5624ZM1.96079 4.34667L2.52863 6.26118L0.960003 7.46431C1.04317 6.36073 1.38609 5.29246 1.96079 4.34667ZM6.39686 10.0392L5.42353 7.2047L8 5.43372L10.5765 7.2047L9.60314 10.0392H6.39686ZM13.4706 6.26118L14.0392 4.34667C14.6136 5.29253 14.9563 6.3608 15.0392 7.46431L13.4706 6.26118ZM13.3404 3.38902L12.549 6.06667L11.2157 6.50039L8.47059 4.61804V3.22823L10.8941 1.56235C11.8326 1.98616 12.6675 2.60953 13.3404 3.38902ZM9.79765 1.17647L8 2.40941L6.20235 1.17647C7.38079 0.866866 8.61921 0.866866 9.79765 1.17647ZM5.10667 1.56157L7.52941 3.22823V4.6149L4.78432 6.49725L3.45098 6.06353L2.65961 3.38902C3.33286 2.60934 4.16791 1.98572 5.10667 1.56157ZM2.56863 12.5035H4.62196L5.34275 14.5427C4.26454 14.1013 3.31174 13.4009 2.56863 12.5035ZM6.4651 14.8902L5.48079 12.109L6.30118 10.9804H9.69882L10.5192 12.109L9.5349 14.8902C8.524 15.1151 7.47601 15.1151 6.4651 14.8902ZM10.6573 14.5388L11.378 12.4996H13.4314C12.6883 13.3969 11.7355 14.0973 10.6573 14.5388Z" fill="#0D5057"/>
</svg>
