<svg width="21" height="16" viewBox="0 0 21 16" fill="none" xmlns="http://www.w3.org/2000/svg">
<path d="M19.1508 10.4221H10.4121L1.72636 0.207097C1.67958 0.149235 1.62169 0.101318 1.55611 0.0661673C1.49053 0.0310162 1.41858 0.00934139 1.3445 0.00241912C1.27041 -0.00450316 1.19569 0.00346705 1.12473 0.0258604C1.05378 0.0482537 0.988017 0.0846174 0.931326 0.132811C0.874635 0.181004 0.82816 0.240053 0.794636 0.30648C0.761112 0.372908 0.741217 0.445371 0.736123 0.519604C0.731029 0.593836 0.740839 0.668338 0.764975 0.738722C0.78911 0.809106 0.827084 0.87395 0.87666 0.929435L13.294 15.5417C13.4165 15.6858 13.569 15.8014 13.7408 15.8806C13.9126 15.9597 14.0996 16.0005 14.2887 16H19.1508C19.496 16 19.827 15.8629 20.0711 15.6188C20.3152 15.3747 20.4523 15.0437 20.4523 14.6985V11.7236C20.4523 11.3784 20.3152 11.0474 20.0711 10.8033C19.827 10.5592 19.496 10.4221 19.1508 10.4221ZM14.1474 14.8193L11.3585 11.5377H16.3618V14.8844H14.2887C14.2619 14.8844 14.2353 14.8786 14.2109 14.8674C14.1865 14.8561 14.1649 14.8397 14.1474 14.8193ZM19.3367 14.6985C19.3367 14.7478 19.3171 14.7951 19.2823 14.83C19.2474 14.8648 19.2001 14.8844 19.1508 14.8844H17.4774V11.5377H19.1508C19.2001 11.5377 19.2474 11.5573 19.2823 11.5921C19.3171 11.627 19.3367 11.6743 19.3367 11.7236V14.6985ZM8.63552 12.9396C8.57974 12.8921 8.51514 12.856 8.44542 12.8335C8.3757 12.811 8.30222 12.8024 8.22918 12.8083C8.15615 12.8141 8.08498 12.8343 8.01976 12.8677C7.95453 12.9011 7.89652 12.947 7.84904 13.0028L6.30489 14.8193C6.28743 14.8397 6.26576 14.8561 6.24137 14.8674C6.21698 14.8786 6.19044 14.8844 6.16358 14.8844H4.09046V11.5377H6.24725C6.39518 11.5377 6.53706 11.4789 6.64167 11.3743C6.74627 11.2697 6.80504 11.1278 6.80504 10.9799C6.80504 10.8319 6.74627 10.6901 6.64167 10.5855C6.53706 10.4809 6.39518 10.4221 6.24725 10.4221H1.30151C0.956328 10.4221 0.625284 10.5592 0.381204 10.8033C0.137123 11.0474 0 11.3784 0 11.7236V14.6985C0 15.0437 0.137123 15.3747 0.381204 15.6188C0.625284 15.8629 0.956328 16 1.30151 16H6.16358C6.35273 16.0005 6.53971 15.9597 6.7115 15.8806C6.88329 15.8014 7.03577 15.6858 7.15831 15.5417L8.70153 13.7251C8.79685 13.6122 8.84344 13.466 8.83107 13.3187C8.81869 13.1714 8.74836 13.0351 8.63552 12.9396ZM1.11558 14.6985V11.7236C1.11558 11.6743 1.13517 11.627 1.17004 11.5921C1.20491 11.5573 1.2522 11.5377 1.30151 11.5377H2.97488V14.8844H1.30151C1.2522 14.8844 1.20491 14.8648 1.17004 14.83C1.13517 14.7951 1.11558 14.7478 1.11558 14.6985ZM12.4043 7.6443L18.7259 0.207097C18.7727 0.149235 18.8306 0.101318 18.8962 0.0661673C18.9618 0.0310162 19.0337 0.00934139 19.1078 0.00241912C19.1819 -0.00450316 19.2566 0.00346705 19.3276 0.0258604C19.3985 0.0482537 19.4643 0.0846174 19.521 0.132811C19.5777 0.181004 19.6241 0.240053 19.6577 0.30648C19.6912 0.372908 19.7111 0.445371 19.7162 0.519604C19.7213 0.593836 19.7115 0.668338 19.6873 0.738722C19.6632 0.809106 19.6252 0.87395 19.5756 0.929435L13.254 8.36664C13.157 8.47518 13.0215 8.54151 12.8763 8.55147C12.7311 8.56144 12.5877 8.51425 12.4768 8.41997C12.3659 8.3257 12.2962 8.19181 12.2827 8.04688C12.2692 7.90196 12.3128 7.75749 12.4043 7.6443Z" fill="#0D5057"/>
</svg>
