<svg width="28" height="28" viewBox="0 0 28 28" fill="none" xmlns="http://www.w3.org/2000/svg">
<path d="M14 0C11.2311 0 8.52431 0.821085 6.22202 2.35942C3.91973 3.89776 2.12532 6.08427 1.06569 8.64243C0.00606574 11.2006 -0.271181 14.0155 0.269012 16.7313C0.809205 19.447 2.14258 21.9416 4.10051 23.8995C6.05844 25.8574 8.55301 27.1908 11.2687 27.731C13.9845 28.2712 16.7994 27.9939 19.3576 26.9343C21.9157 25.8747 24.1022 24.0803 25.6406 21.778C27.1789 19.4757 28 16.7689 28 14C27.9956 10.2883 26.5192 6.72988 23.8947 4.10532C21.2701 1.48075 17.7117 0.00435901 14 0ZM14 26.3529C11.5568 26.3529 9.16851 25.6284 7.13708 24.2711C5.10565 22.9137 3.52234 20.9845 2.58738 18.7273C1.65241 16.4701 1.40778 13.9863 1.88442 11.5901C2.36106 9.19382 3.53757 6.99274 5.26516 5.26515C6.99275 3.53756 9.19383 2.36106 11.5901 1.88442C13.9863 1.40778 16.4701 1.65241 18.7273 2.58737C20.9845 3.52233 22.9137 5.10564 24.2711 7.13707C25.6285 9.1685 26.3529 11.5568 26.3529 14C26.3493 17.2751 25.0467 20.415 22.7308 22.7308C20.415 25.0467 17.2751 26.3493 14 26.3529ZM20.4757 13.3014L11.6914 7.81117C11.5667 7.73325 11.4234 7.69012 11.2765 7.68628C11.1295 7.68243 10.9841 7.718 10.8556 7.7893C10.727 7.86059 10.6198 7.96501 10.5452 8.09171C10.4706 8.21841 10.4313 8.36277 10.4314 8.5098V19.4902C10.4313 19.6372 10.4706 19.7816 10.5452 19.9083C10.6198 20.035 10.727 20.1394 10.8556 20.2107C10.9841 20.282 11.1295 20.3176 11.2765 20.3137C11.4234 20.3099 11.5667 20.2667 11.6914 20.1888L20.4757 14.6986C20.5943 14.6246 20.692 14.5217 20.7598 14.3994C20.8276 14.2772 20.8632 14.1398 20.8632 14C20.8632 13.8602 20.8276 13.7228 20.7598 13.6005C20.692 13.4783 20.5943 13.3754 20.4757 13.3014ZM12.0784 18.0037V9.99627L18.4855 14L12.0784 18.0037Z" fill="white"/>
</svg>
