<svg width="15" height="21" viewBox="0 0 15 21" fill="none" xmlns="http://www.w3.org/2000/svg">
<path d="M15 7.50548C15.0009 6.23805 14.6806 4.99106 14.0691 3.88095C13.4575 2.77085 12.5745 1.83383 11.5027 1.15742C10.4309 0.480998 9.20509 0.0872398 7.93985 0.0129102C6.6746 -0.0614194 5.41115 0.186104 4.26749 0.732368C3.12383 1.27863 2.13725 2.10581 1.39989 3.13667C0.662529 4.16753 0.198438 5.36844 0.0509535 6.62726C-0.096531 7.88608 0.0774022 9.16174 0.55651 10.3351C1.03562 11.5085 1.80427 12.5413 2.7907 13.3372V20.0636C2.7908 20.1528 2.81368 20.2404 2.85718 20.3183C2.90068 20.3961 2.96335 20.4616 3.03924 20.5084C3.12163 20.5598 3.21683 20.587 3.31395 20.5869C3.39507 20.5869 3.47508 20.5681 3.54767 20.5319L7.5 18.5558L11.4532 20.5319C11.533 20.5716 11.6215 20.5902 11.7105 20.586C11.7994 20.5819 11.8859 20.5551 11.9616 20.5082C12.0373 20.4613 12.0998 20.3958 12.1431 20.318C12.1865 20.2402 12.2093 20.1527 12.2093 20.0636V13.3372C13.0805 12.6353 13.7834 11.7472 14.2664 10.738C14.7493 9.72881 15 8.62425 15 7.50548ZM1.04651 7.50548C1.04651 6.2291 1.425 4.98138 2.13412 3.92011C2.84324 2.85884 3.85114 2.03168 5.03036 1.54323C6.20958 1.05478 7.50716 0.926981 8.75901 1.17599C10.0109 1.425 11.1608 2.03963 12.0633 2.94217C12.9658 3.84471 13.5805 4.99461 13.8295 6.24646C14.0785 7.49832 13.9507 8.7959 13.4622 9.97512C12.9738 11.1543 12.1466 12.1622 11.0854 12.8714C10.0241 13.5805 8.77638 13.959 7.5 13.959C5.78907 13.9569 4.1488 13.2763 2.93899 12.0665C1.72917 10.8567 1.04859 9.21641 1.04651 7.50548ZM11.1628 19.2168L7.73285 17.5023C7.66027 17.466 7.58025 17.4472 7.49913 17.4472C7.418 17.4472 7.33799 17.466 7.26541 17.5023L3.83721 19.2168V14.0462C4.95571 14.6745 6.21707 15.0046 7.5 15.0046C8.78293 15.0046 10.0443 14.6745 11.1628 14.0462V19.2168ZM7.5 12.2148C8.43141 12.2148 9.34191 11.9386 10.1163 11.4211C10.8908 10.9037 11.4944 10.1682 11.8508 9.30765C12.2073 8.44713 12.3005 7.50025 12.1188 6.58674C11.9371 5.67322 11.4886 4.8341 10.83 4.1755C10.1714 3.51689 9.33225 3.06837 8.41874 2.88666C7.50522 2.70495 6.55834 2.79821 5.69783 3.15465C4.83732 3.51108 4.10182 4.11469 3.58436 4.88913C3.06689 5.66357 2.7907 6.57406 2.7907 7.50548C2.79208 8.75403 3.28868 9.95106 4.17155 10.8339C5.05441 11.7168 6.25144 12.2134 7.5 12.2148ZM7.5 3.84269C8.22443 3.84269 8.93259 4.0575 9.53494 4.45998C10.1373 4.86245 10.6067 5.4345 10.884 6.10379C11.1612 6.77307 11.2337 7.50954 11.0924 8.22005C10.9511 8.93056 10.6022 9.58321 10.09 10.0955C9.57773 10.6077 8.92509 10.9566 8.21457 11.0979C7.50406 11.2392 6.7676 11.1667 6.09831 10.8895C5.42902 10.6122 4.85697 10.1428 4.4545 9.54041C4.05203 8.93807 3.83721 8.22991 3.83721 7.50548C3.83721 6.53404 4.22311 5.6024 4.91002 4.91549C5.59692 4.22859 6.52857 3.84269 7.5 3.84269Z" fill="white"/>
</svg>
