<svg width="16" height="16" viewBox="0 0 16 16" fill="none" xmlns="http://www.w3.org/2000/svg">
<path d="M13.6405 2.34065C12.5231 1.2231 11.0993 0.462002 9.54937 0.153612C7.9994 -0.154778 6.39279 0.00339005 4.93271 0.608115C3.47264 1.21284 2.22468 2.23696 1.34666 3.55096C0.468643 4.86496 0 6.40982 0 7.99017C0 9.57052 0.468643 11.1154 1.34666 12.4294C2.22468 13.7434 3.47264 14.7675 4.93271 15.3722C6.39279 15.977 7.9994 16.1351 9.54937 15.8267C11.0993 15.5183 12.5231 14.7572 13.6405 13.6397C14.3879 12.9009 14.9814 12.0212 15.3864 11.0514C15.7914 10.0816 16 9.04113 16 7.99017C16 6.93922 15.7914 5.89871 15.3864 4.92894C14.9814 3.95917 14.3879 3.07942 13.6405 2.34065ZM3.00021 3.00493C4.19924 1.80468 5.79235 1.07923 7.48489 0.962741C7.36816 2.65442 6.64105 4.24614 5.43878 5.44194C4.24202 6.64408 2.64953 7.37087 0.957237 7.48726C1.07435 5.7954 1.80007 4.20316 3.00021 3.00493ZM0.95332 8.4312C2.89803 8.31604 4.73253 7.48995 6.10776 6.11013C7.48836 4.7376 8.31589 2.90521 8.43274 0.961957C10.147 1.06572 11.764 1.79328 12.9786 3.00736C14.1933 4.22144 14.9216 5.83809 15.0262 7.55228C13.0839 7.67378 11.2527 8.49997 9.87634 9.87577C8.49996 11.2516 7.67301 13.0824 7.55069 15.0247C5.83525 14.9217 4.2169 14.1941 3.00136 12.9793C1.78582 11.7645 1.05726 10.1466 0.95332 8.4312ZM12.9754 12.9746C11.7762 14.1745 10.1831 14.8997 8.49071 15.016C8.61197 13.3253 9.33874 11.7349 10.5377 10.5366C11.7367 9.33836 13.3275 8.61254 15.0184 8.4923C14.9014 10.1844 14.1757 11.777 12.9754 12.9754V12.9746Z" fill="#0D5057"/>
</svg>
