<svg width="16" height="16" viewBox="0 0 16 16" fill="none" xmlns="http://www.w3.org/2000/svg">
<path d="M8 0C6.41775 0 4.87103 0.469192 3.55544 1.34824C2.23985 2.22729 1.21447 3.47672 0.608967 4.93853C0.00346614 6.40034 -0.15496 8.00887 0.153721 9.56072C0.462403 11.1126 1.22433 12.538 2.34315 13.6569C3.46197 14.7757 4.88743 15.5376 6.43928 15.8463C7.99113 16.155 9.59966 15.9965 11.0615 15.391C12.5233 14.7855 13.7727 13.7602 14.6518 12.4446C15.5308 11.129 16 9.58225 16 8C15.9975 5.87903 15.1539 3.84565 13.6541 2.3459C12.1544 0.846145 10.121 0.00249086 8 0ZM14.5388 10.658C13.4201 11.4359 12.1002 11.8733 10.7385 11.9175C9.37665 11.9618 8.03114 11.611 6.86432 10.9074L8.27137 8.47059H15.0431C14.9935 9.22207 14.8232 9.96066 14.5388 10.658ZM4.88628 1.66588C5.5614 1.33294 6.28568 1.11075 7.03137 1.00784C8.26448 1.58761 9.30343 2.51189 10.0228 3.66912C10.7422 4.82634 11.1113 6.16705 11.0855 7.52941H8.27137L4.88628 1.66588ZM15.0431 7.52941H12.0267C12.0475 6.2638 11.768 5.01128 11.2113 3.87454C10.6545 2.73779 9.83621 1.7492 8.82353 0.989804C10.4598 1.1843 11.9768 1.9442 13.1124 3.13823C14.248 4.33226 14.9309 5.88542 15.0431 7.52941ZM4.07216 2.13804L5.57883 4.74745C4.4725 5.36243 3.52762 6.23076 2.82157 7.2813C2.11553 8.33185 1.66842 9.53472 1.51687 10.7914C0.864634 9.2777 0.763095 7.58341 1.22988 6.00267C1.69666 4.42194 2.70229 3.05459 4.07216 2.13804ZM2.43138 12.3286C2.3182 10.9718 2.59984 9.61123 3.24234 8.41084C3.88484 7.21045 4.86078 6.22149 6.05255 5.56314L7.45647 8L4.07216 13.862C3.44741 13.441 2.89357 12.9235 2.43138 12.3286ZM8 15.0588C6.92017 15.06 5.85463 14.812 4.88628 14.3341L6.39373 11.7231C7.4788 12.3735 8.70248 12.7576 9.96458 12.8441C11.2267 12.9305 12.4913 12.7168 13.6549 12.2204C12.9985 13.1013 12.1455 13.8166 11.1637 14.3094C10.1819 14.8022 9.09853 15.0589 8 15.0588Z" fill="#0D5057"/>
</svg>
